<?xml version="1.0" encoding="utf-8"?>
<!-- Generator: Adobe Illustrator 23.0.1, SVG Export Plug-In . SVG Version: 6.00 Build 0)  -->
<svg version="1.1" id="Ebene_1" xmlns="http://www.w3.org/2000/svg" xmlns:xlink="http://www.w3.org/1999/xlink" x="0px" y="0px"
	 viewBox="0 0 200 200" style="enable-background:new 0 0 200 200;" xml:space="preserve">
<style type="text/css">
	.st0{fill:#7768AE;}
	.st1{fill:none;}
</style>
<g>
	<g>
		<g>
			<g>
				<path class="st0" d="M178.8,156.1c-1.1,0-2.2,0-3.3,0.1c-2.5,0.1-5.1,0.1-7.7,0c-10.8-0.6-21.4-3.6-31.5-8.9
					c-13,5.1-26.6,7.7-40.6,7.7c-8.9,0-17.4-1-25.2-2.9C54,148,41.7,141.1,32.9,131c-10.7-12.3-13.3-26-7.9-40.7
					c4.2-11.4,12.7-20.9,25.8-29c12.5-7.7,27.5-12.7,42.3-14.1l0,0c0,0,0,0,0,0c15.5-1.4,27.9-0.5,40.1,2.8
					c14.1,3.8,25,9.8,33.4,18.4c10.2,10.4,14.2,22.4,11.9,35.7c-1.4,8.6-5.9,16.8-13.1,24.4c1.4,3.1,3.3,6.1,5.9,9.3
					c3.1,3.8,6.8,7.5,11,10.9c1.6,1.2,2.1,2.9,1.4,4.6c-0.6,1.7-2.3,2.8-4.4,3C179.2,156.1,179,156.1,178.8,156.1z M54,65
					c-12.1,7.5-19.9,16.1-23.7,26.5c-4.9,13.2-2.5,25.5,7.1,36.6c8.1,9.3,19.4,15.7,34.7,19.4c7.3,1.8,15.3,2.7,23.7,2.7
					c13.3,0,26.2-2.5,38.5-7.3c1.7-0.7,3.3-0.6,4.8,0.2c9.5,5,19.1,7.7,29.2,8.3c2.3,0.1,4.7,0.1,7.2,0c0.7,0,1.4,0,2.2-0.1
					c-4.2-3.4-7.9-7.1-11-11c-2.9-3.6-5-7-6.6-10.5c-0.7-1.5-0.4-2.9,0.9-4.2c6.8-7.1,10.7-14.3,12.1-22.2
					c2-11.9-1.6-22.7-10.8-32.1c-7.7-7.9-17.8-13.4-30.9-16.9c-11.4-3.1-23.1-3.9-37.8-2.6C79.8,53.1,65.7,57.8,54,65z"/>
			</g>
		</g>
		<g>
			<g>
				<path class="st0" d="M178.8,156.1c-1.1,0-2.2,0-3.3,0.1c-2.5,0.1-5.1,0.1-7.7,0c-10.8-0.6-21.4-3.6-31.5-8.9
					c-13,5.1-26.6,7.7-40.6,7.7c-8.9,0-17.4-1-25.2-2.9C54,148,41.7,141.1,32.9,131c-10.7-12.3-13.3-26-7.9-40.7
					c4.2-11.4,12.7-20.9,25.8-29c12.5-7.7,27.5-12.7,42.3-14.1l0,0c0,0,0,0,0,0c15.5-1.4,27.9-0.5,40.1,2.8
					c14.1,3.8,25,9.8,33.4,18.4c10.2,10.4,14.2,22.4,11.9,35.7c-1.4,8.6-5.9,16.8-13.1,24.4c1.4,3.1,3.3,6.1,5.9,9.3
					c3.1,3.8,6.8,7.5,11,10.9c1.6,1.2,2.1,2.9,1.4,4.6c-0.6,1.7-2.3,2.8-4.4,3C179.2,156.1,179,156.1,178.8,156.1z M54,65
					c-12.1,7.5-19.9,16.1-23.7,26.5c-4.9,13.2-2.5,25.5,7.1,36.6c8.1,9.3,19.4,15.7,34.7,19.4c7.3,1.8,15.3,2.7,23.7,2.7
					c13.3,0,26.2-2.5,38.5-7.3c1.7-0.7,3.3-0.6,4.8,0.2c9.5,5,19.1,7.7,29.2,8.3c2.3,0.1,4.7,0.1,7.2,0c0.7,0,1.4,0,2.2-0.1
					c-4.2-3.4-7.9-7.1-11-11c-2.9-3.6-5-7-6.6-10.5c-0.7-1.5-0.4-2.9,0.9-4.2c6.8-7.1,10.7-14.3,12.1-22.2
					c2-11.9-1.6-22.7-10.8-32.1c-7.7-7.9-17.8-13.4-30.9-16.9c-11.4-3.1-23.1-3.9-37.8-2.6C79.8,53.1,65.7,57.8,54,65z"/>
			</g>
		</g>
	</g>
	<g>
		<g>
			<path class="st0" d="M32.2,137.7c-8-8.4-12.9-18.4-13.8-29.1C17.4,97.2,20.8,86,28,76c-9.3,9.9-14,21.3-13,32.7
				c0.8,8.6,4.6,16.6,11.5,23.7C28.2,134.3,30.1,136,32.2,137.7z"/>
		</g>
		<g>
			<path class="st0" d="M178.3,117.9c0.3-0.5,0.6-1,0.9-1.5c4.3-7.4,6.1-15,5.4-22.6c-0.8-8.9-4.9-17.2-12-24.3
				c5.7,7.4,9.2,15.8,10,24.6C183.4,102.2,181.9,110.3,178.3,117.9z"/>
		</g>
	</g>
	<g>
		<g>
			<path class="st0" d="M66.8,119.1l-0.6-2c-1.4-4.1-1-8.9,1.9-14.4c2.6-4.9,3.9-8.3,3.1-11.8c-0.9-3.9-3.9-6-8.8-5
				c-2.8,0.6-5.7,2.2-7.3,4.1l-2.9-4.5c2.1-2.4,6.3-4.6,10.4-5.5c8.9-1.9,14.1,2.7,15.4,8.5c1.1,5.3-1,9.7-3.7,14.9
				c-2.5,4.8-3,8.4-1.9,12.3l0.5,2L66.8,119.1z M67.5,130.2c-0.6-2.9,0.9-5.3,3.6-5.9c2.7-0.6,5,1,5.6,3.9c0.6,2.7-0.7,5.2-3.6,5.8
				C70.4,134.6,68,133,67.5,130.2z"/>
		</g>
		<g>
			<path class="st0" d="M94.7,115.1l-0.3-1.8c-0.7-3.6,0.1-7.8,3.2-12.1c2.7-3.9,4.2-6.7,3.9-9.7c-0.3-3.5-2.7-5.6-7-5.3
				c-2.4,0.2-5.1,1.3-6.7,2.7l-2-4.1c2.1-1.8,5.9-3.3,9.5-3.6c7.8-0.7,11.8,3.8,12.2,9c0.4,4.6-1.9,8.2-4.8,12.4
				c-2.7,3.8-3.5,6.9-3,10.3l0.2,1.8L94.7,115.1z M94,124.7c-0.2-2.5,1.3-4.4,3.7-4.6c2.4-0.2,4.2,1.4,4.4,3.9
				c0.2,2.4-1.2,4.4-3.7,4.6C96,128.8,94.2,127.1,94,124.7z"/>
		</g>
		<g>
			<path class="st0" d="M118.7,114.4l0.1-2.3c0.1-4.8,2.3-9.8,7.4-14.5c4.5-4.1,7.2-7.3,7.7-11.2c0.6-4.5-1.9-7.8-7.4-8.6
				c-3.2-0.4-6.8,0.2-9.2,1.6l-1.4-5.8c3.2-1.7,8.3-2.5,13-1.9c10.1,1.3,13.8,8.1,13,14.7c-0.8,6-4.6,9.8-9.5,14.3
				c-4.4,4.1-6.3,7.7-6.6,12.3l-0.2,2.3L118.7,114.4z M115.3,126.4c0.4-3.2,2.9-5.2,6-4.9s4.9,2.9,4.5,6.2c-0.4,3.1-2.7,5.2-5.9,4.8
				C116.7,132.1,114.9,129.5,115.3,126.4z"/>
		</g>
	</g>
</g>
<g>
	<rect x="4.3" y="5.9" class="st1" width="191" height="191"/>
</g>
</svg>
